<?xml version="1.0" encoding="utf-8"?>
<!-- Generator: Adobe Illustrator 21.1.0, SVG Export Plug-In . SVG Version: 6.00 Build 0)  -->
<svg version="1.1" id="Layer_1" xmlns="http://www.w3.org/2000/svg" xmlns:xlink="http://www.w3.org/1999/xlink" x="0px" y="0px"
	 viewBox="0 0 433.1 522" style="enable-background:new 0 0 433.1 522;" xml:space="preserve">
<style type="text/css">
	.st0{fill:#FFFFFF;}
	.st1{fill:#06648E;}
	.st2{fill:none;stroke:#FFFFFF;stroke-width:10;stroke-linecap:round;stroke-linejoin:round;stroke-miterlimit:10;}
</style>
<g>
	<path class="st0" d="M216.5,380.9c-90.8,0-164.4-73.6-164.4-164.4c0-90.8,73.6-164.4,164.4-164.4s164.4,73.6,164.4,164.4
		C380.9,307.3,307.3,380.9,216.5,380.9L216.5,380.9z"/>
	<path class="st1" d="M216.5,5C99.7,5,5,99.7,5,216.5C5,377.2,216.5,517,216.5,517s211.5-139.8,211.5-300.5
		C428.1,99.7,333.4,5,216.5,5z M216.5,380.9c-90.8,0-164.4-73.6-164.4-164.4c0-90.8,73.6-164.4,164.4-164.4s164.4,73.6,164.4,164.4
		C380.9,307.3,307.3,380.9,216.5,380.9L216.5,380.9z"/>
	<path class="st1" d="M232.7,122.8l-73.6-0.1v196.3h39.2v-49.2h34.3c40.6,0,73.5-32.9,73.5-73.4
		C306.2,155.7,273.3,122.8,232.7,122.8L232.7,122.8z M256.9,220.5c-6.5,6.5-15.1,10-24.2,10h-34.3V162l34.3,0.1h0.1
		c9.1,0,17.7,3.6,24.2,10c6.5,6.5,10,15.1,10,24.2C266.9,205.4,263.4,214,256.9,220.5L256.9,220.5z"/>
	<path class="st2" d="M216.5,5C99.7,5,5,99.7,5,216.5C5,377.2,216.5,517,216.5,517s211.5-139.8,211.5-300.5
		C428.1,99.7,333.4,5,216.5,5z"/>
</g>
</svg>
