<?xml version="1.0" encoding="utf-8"?>
<!-- Generator: Adobe Illustrator 21.1.0, SVG Export Plug-In . SVG Version: 6.00 Build 0)  -->
<svg version="1.1" id="Layer_1" xmlns="http://www.w3.org/2000/svg" xmlns:xlink="http://www.w3.org/1999/xlink" x="0px" y="0px"
	 viewBox="0 0 433.1 522" style="enable-background:new 0 0 433.1 522;" xml:space="preserve">
<style type="text/css">
	.st0{fill:#FFFFFF;}
	.st1{fill:#8B5531;}
	.st2{fill:none;stroke:#FFFFFF;stroke-width:10;stroke-linecap:round;stroke-linejoin:round;stroke-miterlimit:10;}
</style>
<g>
	<path class="st0" d="M216.5,380.9c-90.8,0-164.4-73.6-164.4-164.4c0-90.8,73.6-164.4,164.4-164.4s164.4,73.6,164.4,164.4
		C380.9,307.3,307.3,380.9,216.5,380.9L216.5,380.9z"/>
	<path class="st1" d="M216.5,5C99.7,5,5,99.7,5,216.5C5,377.2,216.5,517,216.5,517s211.5-139.8,211.5-300.5
		C428.1,99.7,333.4,5,216.5,5z M216.5,380.9c-90.8,0-164.4-73.6-164.4-164.4c0-90.8,73.6-164.4,164.4-164.4s164.4,73.6,164.4,164.4
		C380.9,307.3,307.3,380.9,216.5,380.9L216.5,380.9z"/>
	<path class="st1" d="M328.5,139.1l-27.3,27.3c-5.6,5.6-14.9,5.6-20.5,0L268,153.8c-5.6-5.6-5.6-14.9,0-20.5l27.3-27.3
		c-19.7-7.1-42.8-3-58.7,12.9c-15.7,15.7-20,38.7-12.9,58.2L108.2,292.5c-9.4,9.4-9.4,24.3,0,33.7c9.4,9.4,24.3,9.4,33.7,0
		l115.2-115.4c19.7,7.1,42.5,2.8,58.2-12.9C331.5,181.9,335.6,158.8,328.5,139.1L328.5,139.1z M123.4,318.6c-4.6,0-8.1-3.8-8.1-8.1
		s3.8-8.1,8.1-8.1s8.1,3.8,8.1,8.1S128,318.6,123.4,318.6z"/>
	<path class="st2" d="M216.5,5C99.7,5,5,99.7,5,216.5C5,377.2,216.5,517,216.5,517s211.5-139.8,211.5-300.5
		C428.1,99.7,333.4,5,216.5,5z"/>
</g>
</svg>
