<?xml version="1.0" standalone="no"?>
<!DOCTYPE svg PUBLIC "-//W3C//DTD SVG 20010904//EN"
 "http://www.w3.org/TR/2001/REC-SVG-20010904/DTD/svg10.dtd">
<svg version="1.0" xmlns="http://www.w3.org/2000/svg"
 width="192.000000pt" height="192.000000pt" viewBox="0 0 192.000000 192.000000"
 preserveAspectRatio="xMidYMid meet">
<metadata>
Created by potrace 1.11, written by Peter Selinger 2001-2013
</metadata>
<g transform="translate(0.000000,192.000000) scale(0.100000,-0.100000)"
fill="#000000" stroke="none">
<path d="M0 960 l0 -960 960 0 960 0 0 960 0 960 -960 0 -960 0 0 -960z m830
730 l0 -30 -64 0 c-73 0 -90 -10 -106 -68 -5 -20 -10 -40 -10 -44 0 -5 124 -8
275 -8 l275 0 10 26 c15 38 13 41 -33 47 -24 3 -56 11 -72 17 -55 21 -11 31
126 28 l134 -3 0 -25 c0 -22 -5 -25 -37 -28 -29 -2 -38 -9 -48 -31 -10 -24 -6
-39 32 -125 l43 -96 70 6 c86 8 142 -6 212 -53 210 -139 171 -464 -67 -554
-141 -54 -315 10 -381 141 -16 30 -31 63 -33 73 -5 14 -17 17 -78 17 -93 0
-105 8 -235 160 -54 63 -130 148 -168 189 l-71 74 -11 -36 c-11 -36 -11 -37
32 -61 114 -67 176 -218 141 -341 -45 -151 -155 -238 -306 -238 -89 0 -147 22
-210 79 -214 193 -81 544 206 544 l62 0 15 48 c8 26 30 94 47 152 25 80 40
112 65 137 32 32 36 33 109 33 l76 0 0 -30z m-220 -1065 l0 -35 -50 0 -50 0 0
35 0 35 50 0 50 0 0 -35z m140 -57 l1 -93 37 43 c36 40 40 42 96 42 l58 0 -50
-56 -50 -56 37 -62 c70 -114 70 -106 7 -106 -55 0 -55 0 -82 45 -21 37 -29 43
-40 34 -8 -6 -14 -27 -14 -45 l0 -34 -50 0 -50 0 0 190 0 190 50 0 50 0 0 -92z
m-329 59 c29 -19 34 -30 37 -66 3 -34 -2 -49 -20 -69 -17 -18 -19 -26 -10 -29
45 -16 64 -76 41 -127 -20 -44 -64 -56 -198 -56 l-121 0 0 185 0 185 119 0
c106 0 121 -2 152 -23z m735 -88 c36 -33 54 -72 54 -114 l0 -35 -95 0 c-93 0
-95 -1 -85 -20 12 -23 68 -28 100 -8 16 10 23 9 45 -12 23 -22 24 -25 9 -41
-39 -44 -151 -50 -203 -12 -61 45 -79 151 -34 211 47 65 156 81 209 31z m263
17 c42 -15 46 -24 22 -55 -17 -22 -21 -23 -51 -12 -44 15 -70 14 -70 -3 0 -7
20 -19 45 -26 25 -7 57 -21 70 -32 51 -40 37 -122 -25 -148 -53 -22 -190 3
-190 35 0 7 8 23 18 35 16 20 19 20 47 6 39 -20 85 -21 85 -1 0 9 -17 19 -45
26 -24 6 -56 22 -70 35 -46 43 -27 124 35 147 26 10 94 6 129 -7z m-809 -136
l0 -140 -50 0 -50 0 0 140 0 140 50 0 50 0 0 -140z m985 59 c15 -44 29 -78 32
-75 3 2 15 37 27 78 l23 73 52 3 c62 4 64 24 -15 -183 -65 -170 -82 -189 -161
-183 -68 6 -80 17 -63 58 11 28 16 30 46 24 23 -4 34 -2 34 5 0 7 -22 68 -50
137 -27 69 -50 129 -50 135 0 5 22 9 49 9 l49 0 27 -81z"/>
<path d="M651 1453 c14 -18 210 -233 307 -336 30 -32 57 -56 59 -53 5 4 135
344 148 386 6 20 0 20 -261 20 -252 0 -266 -1 -253 -17z"/>
<path d="M1230 1437 c0 -2 -31 -86 -70 -188 -38 -101 -70 -189 -70 -196 0 -7
11 -13 23 -13 21 0 25 8 37 58 19 89 56 150 117 195 l32 24 -29 61 c-24 52
-40 75 -40 59z"/>
<path d="M1402 1282 c-9 -6 1 -38 43 -131 31 -68 55 -133 53 -144 -3 -21 -8
-22 -135 -25 -149 -3 -150 -4 -105 -70 106 -157 326 -147 416 19 66 120 14
274 -111 334 -42 21 -141 31 -161 17z"/>
<path d="M371 1266 c-165 -59 -206 -290 -74 -407 50 -43 97 -61 163 -61 138 0
240 103 240 242 0 88 -45 171 -113 206 -22 12 -28 12 -32 2 -2 -7 -18 -58 -35
-113 -34 -108 -47 -129 -73 -119 -24 9 -21 41 13 147 17 52 30 99 30 106 0 15
-75 13 -119 -3z"/>
<path d="M1288 1213 c-42 -43 -68 -98 -68 -143 l0 -30 94 0 c52 0 97 3 99 8 3
4 -16 51 -42 105 l-46 98 -37 -38z"/>
<path d="M250 534 l0 -35 46 3 c88 6 81 68 -8 68 -37 0 -38 -1 -38 -36z"/>
<path d="M250 395 l0 -35 49 0 c32 0 55 6 65 16 9 8 16 17 16 19 0 2 -7 11
-16 19 -10 10 -33 16 -65 16 l-49 0 0 -35z"/>
<path d="M1032 478 c-21 -21 -13 -28 34 -28 38 0 45 3 42 18 -4 21 -57 29 -76
10z"/>
</g>
</svg>
