<?xml version="1.0" standalone="no"?>
<!DOCTYPE svg PUBLIC "-//W3C//DTD SVG 20010904//EN"
 "http://www.w3.org/TR/2001/REC-SVG-20010904/DTD/svg10.dtd">
<svg version="1.0" xmlns="http://www.w3.org/2000/svg"
 width="270.000000pt" height="270.000000pt" viewBox="0 0 270.000000 270.000000"
 preserveAspectRatio="xMidYMid meet">
<metadata>
Created by potrace 1.11, written by Peter Selinger 2001-2013
</metadata>
<g transform="translate(0.000000,270.000000) scale(0.100000,-0.100000)"
fill="#000000" stroke="none">
<path d="M0 1350 l0 -1350 1350 0 1350 0 0 1350 0 1350 -1350 0 -1350 0 0
-1350z m1170 661 l0 -38 -95 -5 c-54 -3 -101 -11 -110 -18 -12 -10 -55 -130
-55 -154 0 -3 175 -6 389 -6 l389 0 16 47 c9 25 15 47 13 48 -1 1 -31 8 -67
14 -80 16 -134 37 -125 51 4 6 79 10 201 10 l194 0 0 -39 0 -40 -52 -3 c-52
-3 -53 -4 -67 -45 l-15 -41 61 -134 60 -133 34 5 c19 3 77 5 130 5 90 0 100
-3 171 -37 227 -113 317 -369 208 -593 -39 -81 -82 -131 -153 -176 -136 -88
-306 -96 -453 -21 -93 47 -188 163 -213 260 l-12 42 -102 0 c-132 0 -146 9
-289 176 -166 195 -369 415 -378 409 -4 -2 -10 -17 -13 -32 -3 -16 -8 -35 -12
-44 -4 -12 6 -24 41 -44 68 -40 119 -90 158 -154 150 -246 28 -566 -248 -653
-47 -15 -81 -19 -151 -16 -78 4 -100 9 -165 40 -135 64 -226 183 -251 331 -31
187 73 384 248 468 59 29 82 34 172 38 l105 6 51 173 c101 333 108 341 288
342 l97 0 0 -39z"/>
<path d="M931 1652 c24 -26 91 -99 149 -162 237 -258 342 -370 348 -370 4 0
45 103 91 228 46 125 95 255 107 290 l24 62 -381 0 -382 0 44 -48z"/>
<path d="M1721 1628 c-8 -28 -53 -148 -176 -465 l-24 -63 44 0 c42 0 45 2 45
28 1 106 82 256 175 323 l43 31 -42 89 c-22 49 -44 89 -48 89 -4 0 -11 -15
-17 -32z"/>
<path d="M560 1424 c-103 -27 -192 -107 -237 -212 -11 -24 -16 -66 -16 -122 0
-108 30 -177 109 -249 74 -68 145 -94 244 -89 134 6 243 78 298 197 23 48 27
70 26 146 0 78 -3 97 -27 143 -34 66 -84 121 -131 146 -20 11 -38 17 -40 15
-1 -2 -22 -68 -46 -146 -59 -195 -82 -230 -125 -183 -21 23 -16 46 44 235 27
85 35 122 27 127 -17 11 -65 8 -126 -8z"/>
<path d="M1969 1432 c-14 -6 -4 -33 62 -182 80 -177 92 -223 63 -234 -9 -3
-96 -6 -195 -6 -98 0 -179 -2 -179 -5 0 -21 59 -114 95 -150 54 -55 106 -82
181 -94 153 -24 302 54 369 195 25 51 29 71 28 144 0 72 -4 94 -27 142 -31 64
-101 135 -167 169 -33 17 -64 23 -129 26 -47 1 -92 -1 -101 -5z"/>
<path d="M1809 1339 c-48 -48 -86 -125 -95 -192 l-7 -47 146 0 146 0 -36 78
c-19 42 -48 105 -64 140 -15 34 -33 62 -39 62 -5 0 -28 -18 -51 -41z"/>
</g>
</svg>
